<svg xmlns="http://www.w3.org/2000/svg" fill="none" viewBox="0 0 65 42">
  <defs/>
  <path fill="#001847" d="M12.936 14.24h4.2v6.96c-.96.688-2.064 1.216-3.312 1.584-1.248.368-2.496.552-3.744.552-1.76 0-3.344-.368-4.752-1.104-1.408-.752-2.512-1.792-3.312-3.12-.8-1.328-1.2-2.832-1.2-4.512 0-1.68.4-3.184 1.2-4.512.8-1.328 1.912-2.36 3.336-3.096 1.424-.752 3.032-1.128 4.824-1.128 1.568 0 2.976.264 4.224.792 1.248.528 2.288 1.288 3.12 2.28l-3.024 2.736C13.36 10.424 12 9.8 10.416 9.8c-1.44 0-2.6.44-3.48 1.32-.88.864-1.32 2.024-1.32 3.48 0 .928.2 1.76.6 2.496.4.72.96 1.288 1.68 1.704.72.4 1.544.6 2.472.6.912 0 1.768-.184 2.568-.552V14.24zm5.5327-8.04h4.752v13.032h8.0161V23H18.4687V6.2zm20.6485 0c1.52 0 2.84.256 3.96.768 1.12.496 1.984 1.216 2.592 2.16.608.928.912 2.024.912 3.288 0 1.264-.304 2.36-.912 3.288-.608.928-1.472 1.648-2.592 2.16-1.12.496-2.44.744-3.96.744h-2.928V23h-4.752V6.2h7.68zm-.288 8.664c.976 0 1.712-.208 2.208-.624.496-.432.744-1.04.744-1.824s-.248-1.392-.744-1.824c-.496-.432-1.232-.648-2.208-.648h-2.64v4.92h2.64zm19.8793-.624h4.2v6.96c-.96.688-2.064 1.216-3.312 1.584-1.248.368-2.496.552-3.744.552-1.76 0-3.344-.368-4.752-1.104-1.408-.752-2.512-1.792-3.312-3.12-.8-1.328-1.2-2.832-1.2-4.512 0-1.68.4-3.184 1.2-4.512.8-1.328 1.912-2.36 3.336-3.096 1.424-.752 3.032-1.128 4.824-1.128 1.568 0 2.976.264 4.224.792 1.248.528 2.288 1.288 3.12 2.28l-3.024 2.736c-1.136-1.248-2.496-1.872-4.08-1.872-1.44 0-2.6.44-3.48 1.32-.88.864-1.32 2.024-1.32 3.48 0 .928.2 1.76.6 2.496.4.72.96 1.288 1.68 1.704.72.4 1.544.6 2.472.6.912 0 1.768-.184 2.568-.552V14.24z"/>
  <path fill="#456CAC" d="M2 27h61v15L2 27z"/>
  <path fill="#fff" d="M44.584 35.164V37H37.84v-8.4h6.588v1.836h-4.236v1.416h3.732v1.776h-3.732v1.536h4.392zm8.4705-6.564V37h-2.376v-3.276h-3.24V37h-2.376v-8.4h2.376v3.156h3.24V28.6h2.376zm4.508 6.168h-1.296V37h-2.376v-8.4h3.84c.76 0 1.42.128 1.98.384.56.248.992.608 1.296 1.08.304.464.456 1.012.456 1.644 0 .608-.144 1.14-.432 1.596-.28.448-.684.8-1.212 1.056l1.812 2.64h-2.544l-1.524-2.232zm1.5-3.06c0-.392-.124-.696-.372-.912-.248-.216-.616-.324-1.104-.324h-1.32v2.46h1.32c.488 0 .856-.104 1.104-.312.248-.216.372-.52.372-.912z"/>
</svg>
